<?xml version="1.0" encoding="UTF-8" standalone="no"?>
<!-- Created with Inkscape (http://www.inkscape.org/) -->

<svg
   width="1000"
   height="1000"
   viewBox="0 0 264.58333 264.58333"
   version="1.1"
   id="svg5"
   xml:space="preserve"
   inkscape:version="1.2 (dc2aedaf03, 2022-05-15)"
   sodipodi:docname="desenho.svg"
   inkscape:export-filename="desenho.png"
   inkscape:export-xdpi="96"
   inkscape:export-ydpi="96"
   xmlns:inkscape="http://www.inkscape.org/namespaces/inkscape"
   xmlns:sodipodi="http://sodipodi.sourceforge.net/DTD/sodipodi-0.dtd"
   xmlns="http://www.w3.org/2000/svg"
   xmlns:svg="http://www.w3.org/2000/svg"><sodipodi:namedview
     id="namedview7"
     pagecolor="#ffffff"
     bordercolor="#000000"
     borderopacity="0.25"
     inkscape:showpageshadow="2"
     inkscape:pageopacity="0.0"
     inkscape:pagecheckerboard="0"
     inkscape:deskcolor="#d1d1d1"
     inkscape:document-units="mm"
     showgrid="false"
     inkscape:zoom="0.814"
     inkscape:cx="313.88206"
     inkscape:cy="500"
     inkscape:window-width="1920"
     inkscape:window-height="1017"
     inkscape:window-x="-8"
     inkscape:window-y="-8"
     inkscape:window-maximized="1"
     inkscape:current-layer="layer1" /><defs
     id="defs2"><clipPath
       clipPathUnits="userSpaceOnUse"
       id="clipPath373"><path
         id="path375"
         style="fill:#000000;stroke-width:0.199846"
         d="m 103.88193,31.873166 -0.0537,22.732979 c -0.0606,25.452705 0.0475,23.634803 -1.5074,25.355558 -1.2724,1.408118 -1.71235,1.540457 -5.40019,1.629357 l -3.255616,0.07855 0.05839,1.431949 0.0584,1.431441 2.697509,0.04082 c 1.48386,0.02244 3.160959,-0.04042 3.726907,-0.13952 3.55235,-0.62198 6.07789,-3.565761 6.55877,-7.645533 l 0.13539,-1.149284 h 1.41335 1.41335 l -0.12454,1.335837 c -0.15446,1.654024 -0.78444,3.586676 -1.65106,5.065318 -0.79959,1.364292 -3.01096,3.487002 -4.42712,4.24987 -1.92192,1.03532 -2.95758,1.13289 -12.090733,1.136891 l -8.343678,0.0036 v 1.49914 1.49861 h 8.60361 c 7.228504,0 8.833841,-0.05207 10.042281,-0.325562 5.25613,-1.189519 9.57588,-5.815599 10.64431,-11.399819 0.15778,-0.824632 0.2868,-1.851522 0.2868,-2.281515 v -0.781862 h 1.39889 1.39888 v 1.186489 c 0,5.025877 -3.19897,10.73348 -7.6693,13.682888 -3.71476,2.450891 -4.9819,2.714112 -13.06432,2.716109 l -6.245614,0.0021 v 1.514641 1.514629 l 6.944796,-0.08268 c 6.531898,-0.07738 7.033648,-0.109119 8.443408,-0.538469 8.20635,-2.49936 13.94922,-9.6369 14.55932,-18.096053 l 0.12971,-1.798857 1.34875,-0.05891 c 0.99499,-0.04359 1.35375,0.0085 1.36685,0.199469 0.12581,1.834422 -0.31356,4.801145 -1.04025,7.024899 -2.35762,7.214561 -7.1119,12.255982 -14.06581,14.915362 -2.38752,0.91305 -4.51984,1.239808 -8.693523,1.331708 l -3.696933,0.08113 -0.06046,1.222144 c -0.03316,0.67212 -0.01376,1.34395 0.04341,1.49293 l 5.29e-4,-0.001 c 0.128982,0.33615 3.937066,0.37245 7.145307,0.0682 8.00873,-0.75946 15.06793,-5.108404 19.29701,-11.888164 1.70366,-2.731159 2.90898,-5.74031 3.70055,-9.23974 0.43979,-1.944176 0.44153,-2.042734 0.50333,-25.483719 l 0.062,-23.531896 h -10.2955 z m 41.98865,0.713134 c -2.13988,-0.01855 -4.27271,0.09932 -5.82445,0.358635 -3.92925,0.656635 -7.33315,1.755667 -10.79159,3.484025 l -1.89859,0.948778 0.0134,16.383497 c 0.008,9.01097 0.0992,17.737307 0.20308,19.39158 0.17511,2.788163 0.23545,3.102094 0.82838,4.296897 2.80016,5.64247 7.73997,9.366088 13.91026,10.48567 4.70169,0.853088 10.09969,-0.336812 14.0348,-3.09336 1.84671,-1.293622 4.90001,-4.381423 4.87671,-4.931995 -0.004,-0.09467 -0.41754,-0.442301 -0.91881,-0.772046 -0.50127,-0.329745 -1.03657,-0.68825 -1.18959,-0.796851 -0.20561,-0.145923 -0.3636,-0.06775 -0.60565,0.299723 -0.75039,1.139277 -3.67637,3.734088 -5.16816,4.583189 -2.38613,1.35813 -4.42183,1.85325 -7.69875,1.87275 -2.91247,0.01733 -4.44224,-0.26294 -6.56911,-1.203542 -2.7804,-1.229619 -5.83346,-3.959947 -7.42591,-6.640425 -2.9343,-4.939184 -2.83186,-11.838231 0.24598,-16.562298 0.98679,-1.514578 3.27291,-3.910624 4.55632,-4.775417 2.89496,-1.950712 5.59243,-2.753241 9.19272,-2.734201 3.56435,0.01881 6.1968,0.843351 9.20305,2.882511 1.08327,0.734787 3.78685,3.455392 3.78685,3.810619 0,0.09825 0.0915,0.178803 0.20309,0.178803 0.28124,0 2.3952,-1.42026 2.3952,-1.609204 0,-0.279003 -1.52168,-2.069428 -2.71921,-3.199289 -3.04954,-2.877235 -7.11729,-4.689864 -11.41998,-5.089612 l -1.449,-0.134877 v -1.378725 c 0,-1.607868 -0.18272,-1.534798 2.89336,-1.157552 5.50133,0.674669 11.2093,4.04418 14.55208,8.589655 l 0.57309,0.778764 0.8692,-0.597897 c 0.47805,-0.328904 0.95561,-0.597895 1.06144,-0.597895 0.10583,0 0.25007,-0.14877 0.31987,-0.330729 0.17775,-0.463196 -0.66928,-1.620888 -2.68252,-3.667477 -4.24626,-4.316606 -9.81786,-6.90168 -15.79077,-7.325651 l -1.79575,-0.127124 V 42.805832 41.40695 l 2.04845,0.117306 c 4.9154,0.281207 9.97978,2.159058 14.39189,5.337143 1.56156,1.124813 4.81875,4.371494 5.73556,5.716963 l 0.69195,1.015442 1.19373,-0.77153 c 0.65674,-0.424468 1.23314,-0.810906 1.28054,-0.858345 0.0475,-0.04746 -0.49876,-0.832115 -1.21388,-1.744081 -5.39071,-6.874581 -13.56797,-11.24581 -21.8705,-11.690757 l -2.25774,-0.120923 v -1.485183 -1.48518 l 1.449,0.11834 c 4.99591,0.407323 8.10329,1.138203 11.85664,2.78846 5.39727,2.373034 10.05648,6.096952 13.70718,10.955403 l 0.70486,0.937927 1.07952,-0.7152 c 0.59386,-0.393224 1.14989,-0.777227 1.23559,-0.853694 0.21265,-0.189754 -1.46516,-2.453823 -3.2675,-4.409036 -5.28371,-5.731872 -12.73559,-9.774404 -20.67006,-11.213269 -1.57976,-0.286475 -3.72643,-0.441875 -5.86631,-0.460436 z m 20.07371,45.914509 -1.70325,2.217438 c -2.20394,2.868875 -5.37521,6.054373 -6.90811,6.939114 -2.15296,1.24262 -6.373,2.74048 -8.98136,3.187919 -2.06803,0.35474 -5.96894,0.129191 -8.32921,-0.481629 -4.65492,-1.204679 -9.15987,-4.227671 -11.97188,-8.034131 l -0.87281,-1.181838 -0.44545,1.593178 c -0.24495,0.876242 -0.45244,1.75751 -0.46044,1.95802 -0.0336,0.806032 3.73453,4.216341 6.50193,5.88491 2.51043,1.513631 6.22992,2.814571 9.47074,3.311951 1.10085,0.168939 5.77473,0.115451 6.9944,-0.0801 3.57005,-0.57241 7.63537,-2.155489 10.00766,-3.896921 0.51569,-0.378539 1.00175,-0.68833 1.08055,-0.68833 0.29479,0 3.21964,-2.75795 4.62401,-4.36046 1.43531,-1.637829 3.27319,-4.230854 3.27319,-4.617805 0,-0.108947 -0.51297,-0.547565 -1.13999,-0.974619 z m 6.09059,0.622186 c -0.0908,-0.01572 -0.14401,0.0084 -0.16433,0.06925 -0.19871,0.595321 -2.70899,4.549482 -3.85868,6.078181 -1.80674,2.402379 -5.59083,6.09905 -7.38146,7.21093 -2.87216,1.78344 -6.20682,3.14801 -9.39323,3.844211 -2.01691,0.440658 -7.21578,0.612359 -9.49554,0.313679 -5.51622,-0.722691 -11.45578,-3.599159 -15.42955,-7.472931 -0.68397,-0.66675 -1.27705,-1.172758 -1.31775,-1.123958 -0.0407,0.04881 -0.38051,0.657709 -0.755,1.352878 l -0.68057,1.26401 1.40198,1.333772 c 4.45909,4.241948 11.25588,7.23387 17.78341,7.82846 2.19618,0.200043 5.35369,0.07351 7.89357,-0.316262 4.2333,-0.64966 9.03049,-2.650738 12.79044,-5.33559 1.84327,-1.316228 5.22066,-4.48383 6.65179,-6.23838 1.02575,-1.25757 2.78593,-3.995089 3.56619,-5.54695 l 0.81235,-1.616435 -0.46922,-0.363286 c -1.07199,-0.830776 -1.68197,-1.234424 -1.9544,-1.281573 z m 1.26504,9.029935 c -0.0242,0.0013 -0.0414,0.0094 -0.0507,0.02376 -1.42073,2.213311 -5.15571,6.056529 -7.75456,7.978849 -7.63295,5.645981 -17.08047,7.781521 -26.34826,5.956221 -3.06237,-0.60313 -5.02403,-1.25404 -7.89358,-2.618439 -3.46392,-1.64702 -6.07473,-3.365449 -8.34213,-5.49062 -0.48441,-0.45403 -0.94856,-0.74681 -1.03146,-0.65061 -0.69411,0.805288 -1.61799,2.043739 -1.61799,2.168858 0,0.173011 1.22029,1.274652 2.76211,2.493391 5.14394,4.06604 12.45294,6.99573 18.92132,7.58455 8.54465,0.77782 15.98595,-1.02732 23.48178,-5.696809 3.27919,-2.04276 7.48126,-5.984189 9.75392,-9.148802 l 0.64337,-0.896069 -1.22266,-0.94051 c -0.61373,-0.472238 -1.13182,-0.773199 -1.30121,-0.76378 z m 2.1332,24.92355 c -0.50477,0 -0.9812,0.0936 -1.42989,0.2806 -0.42999,0.18695 -0.89772,0.49502 -1.4025,0.92501 l 1.37408,2.49597 c 0.3926,-0.33652 0.72933,-0.56987 1.00976,-0.70073 0.28043,-0.13087 0.56086,-0.19637 0.84129,-0.19637 0.26173,0 0.50481,0.0374 0.72915,0.11213 0.74782,0.22435 1.41154,0.40192 1.9911,0.53279 0.59825,0.13087 1.02811,0.19637 1.28984,0.19637 0.99085,0 2.00051,-0.38329 3.02876,-1.1498 l -1.31827,-2.49597 c -0.54216,0.31782 -0.97202,0.53275 -1.28984,0.64492 -0.31782,0.11217 -0.63561,0.16846 -0.95343,0.16846 -0.24304,0 -0.47691,-0.0374 -0.70125,-0.11213 -0.50478,-0.14957 -0.9157,-0.27136 -1.23352,-0.36484 -0.29912,-0.0935 -0.56114,-0.15898 -0.78548,-0.19637 -0.22434,-0.0561 -0.42085,-0.0934 -0.58911,-0.11214 -0.16826,-0.0187 -0.35504,-0.0279 -0.56069,-0.0279 z m -98.234315,5.4963 c -0.934765,0 -1.80421,0.14995 -2.608109,0.44907 -0.785204,0.28043 -1.477076,0.67293 -2.075326,1.17771 -0.598249,0.50477 -1.065466,1.09327 -1.401982,1.7663 -0.336516,0.67303 -0.504878,1.40226 -0.504878,2.18746 0,1.14041 0.345935,2.15929 1.037664,3.05666 0.71042,0.89738 1.738503,1.61739 3.084566,2.15956 0.766508,0.31782 1.355518,0.5609 1.766816,0.72915 0.429993,0.16826 0.756991,0.30848 0.981337,0.42065 0.224342,0.0935 0.383497,0.18661 0.476972,0.28009 0.112173,0.0748 0.243178,0.16843 0.392742,0.2806 0.373904,0.31782 0.560689,0.72926 0.560689,1.23403 0,0.50478 -0.177575,0.93463 -0.532786,1.28985 -0.355211,0.33651 -0.794795,0.50487 -1.318265,0.50487 -0.59825,0 -1.074674,-0.22413 -1.429885,-0.67282 -0.336516,-0.46739 -0.504881,-1.09375 -0.504881,-1.87896 h -4.823478 v 0.89711 c 0.01871,0.24303 0.03763,0.46769 0.05633,0.67334 l 0.112136,0.56069 c 0.05609,0.18695 0.121589,0.38294 0.196371,0.58859 0.429993,1.27128 1.196062,2.23438 2.299086,2.88872 1.121717,0.65433 2.514672,0.98133 4.178554,0.98133 2.056485,0 3.664371,-0.50457 4.823479,-1.51412 1.15911,-1.02824 1.738913,-2.44934 1.738913,-4.26279 0,-1.21519 -0.345938,-2.24327 -1.037664,-3.08456 -0.673031,-0.84129 -1.794762,-1.61709 -3.36517,-2.32751 -0.74781,-0.33652 -1.327615,-0.59853 -1.73891,-0.78548 -0.392602,-0.18696 -0.701183,-0.33638 -0.925526,-0.44855 -0.205647,-0.11218 -0.355073,-0.20531 -0.44855,-0.28009 -0.09348,-0.0748 -0.196337,-0.16843 -0.30851,-0.2806 -0.149561,-0.13087 -0.270843,-0.29002 -0.364318,-0.47698 -0.07478,-0.18695 -0.112138,-0.38294 -0.112138,-0.58859 0,-0.42999 0.158636,-0.78514 0.476456,-1.06557 0.31782,-0.28043 0.710324,-0.42064 1.177708,-0.42064 0.523468,0 0.916488,0.14942 1.178221,0.44855 0.261734,0.28043 0.439307,0.73843 0.532784,1.37407 h 4.767151 c -0.05609,-0.87868 -0.177882,-1.58897 -0.364836,-2.13113 -0.186952,-0.54217 -0.485804,-1.06568 -0.897102,-1.57045 -0.560861,-0.67303 -1.29009,-1.19654 -2.187464,-1.57045 -0.897374,-0.3926 -1.859952,-0.58911 -2.888197,-0.58911 z m 99.944805,0 c -1.38345,0 -2.68276,0.25229 -3.89795,0.75706 -1.1965,0.50478 -2.24301,1.19665 -3.14038,2.07533 -0.87868,0.85998 -1.57976,1.87885 -2.10323,3.05666 -0.50478,1.15911 -0.75758,2.41185 -0.75758,3.75791 0,1.42084 0.2528,2.73908 0.75758,3.95428 0.50477,1.1965 1.19613,2.243 2.07481,3.14038 0.89737,0.87868 1.94439,1.57055 3.14089,2.07532 1.2152,0.48608 2.53344,0.72916 3.95428,0.72916 1.38345,0 2.67303,-0.25229 3.86953,-0.75706 1.2152,-0.50478 2.27194,-1.19665 3.16932,-2.07533 0.89737,-0.87868 1.59846,-1.90676 2.10323,-3.08457 0.52347,-1.1965 0.78496,-2.47738 0.78496,-3.84214 0,-1.36476 -0.26149,-2.64512 -0.78496,-3.84162 -0.50477,-1.1965 -1.20586,-2.23431 -2.10323,-3.11299 -0.89738,-0.87868 -1.95412,-1.57055 -3.16932,-2.07533 -1.1965,-0.50477 -2.4958,-0.75706 -3.89795,-0.75706 z m 31.82906,0 c -0.93476,0 -1.80421,0.14995 -2.60811,0.44907 -0.7852,0.28043 -1.47707,0.67293 -2.07532,1.17771 -0.59825,0.50477 -1.06547,1.09327 -1.40198,1.7663 -0.33652,0.67303 -0.50488,1.40226 -0.50488,2.18746 0,1.14041 0.34593,2.15929 1.03766,3.05666 0.71042,0.89738 1.73851,1.61739 3.08457,2.15956 0.76651,0.31782 1.35552,0.5609 1.76682,0.72915 0.42999,0.16826 0.7575,0.30848 0.98185,0.42065 0.22434,0.0935 0.38298,0.18661 0.47645,0.28009 0.11218,0.0748 0.24318,0.16843 0.39274,0.2806 0.37391,0.31782 0.56069,0.72926 0.56069,1.23403 0,0.50478 -0.17757,0.93463 -0.53278,1.28985 -0.35521,0.33651 -0.79428,0.50487 -1.31775,0.50487 -0.59825,0 -1.07519,-0.22413 -1.4304,-0.67282 -0.33652,-0.46739 -0.50488,-1.09375 -0.50488,-1.87896 h -4.82348 v 0.89711 c 0.0187,0.24303 0.0376,0.46769 0.0563,0.67334 l 0.11214,0.56069 c 0.0561,0.18695 0.12158,0.38294 0.19637,0.58859 0.42999,1.27128 1.19657,2.23438 2.2996,2.88872 1.12172,0.65433 2.51415,0.98133 4.17804,0.98133 2.05648,0 3.66437,-0.50457 4.82348,-1.51412 1.1591,-1.02824 1.73891,-2.44934 1.73891,-4.26279 0,-1.21519 -0.34594,-2.24327 -1.03767,-3.08456 -0.67303,-0.84129 -1.79476,-1.61709 -3.36516,-2.32751 -0.74782,-0.33652 -1.32762,-0.59853 -1.73892,-0.78548 -0.3926,-0.18696 -0.70066,-0.33638 -0.92501,-0.44855 -0.20564,-0.11218 -0.35559,-0.20531 -0.44906,-0.28009 -0.0935,-0.0748 -0.19634,-0.16843 -0.30851,-0.2806 -0.14956,-0.13087 -0.27084,-0.29002 -0.36432,-0.47698 -0.0748,-0.18695 -0.11214,-0.38294 -0.11214,-0.58859 0,-0.42999 0.15864,-0.78514 0.47646,-1.06557 0.31782,-0.28043 0.71084,-0.42064 1.17822,-0.42064 0.52347,0 0.91597,0.14942 1.17771,0.44855 0.26173,0.28043 0.4393,0.73843 0.53278,1.37407 h 4.76715 c -0.0561,-0.87868 -0.17736,-1.58897 -0.36432,-2.13113 -0.18695,-0.54217 -0.48632,-1.06568 -0.89762,-1.57045 -0.56086,-0.67303 -1.29008,-1.19654 -2.18746,-1.57045 -0.89738,-0.3926 -1.85995,-0.58911 -2.8882,-0.58911 z m -52.63658,0.0284 c -1.38345,0 -2.67354,0.25229 -3.87004,0.75706 -1.1965,0.50478 -2.24352,1.19613 -3.1409,2.07481 -0.87868,0.85999 -1.57055,1.88859 -2.07532,3.08509 -0.50478,1.1778 -0.75706,2.44896 -0.75706,3.81372 0,1.23389 0.20572,2.40219 0.61701,3.50521 0.43,1.10302 1.01901,2.08454 1.76682,2.94452 0.76651,0.85999 1.66358,1.58001 2.69183,2.15956 1.04693,0.56086 2.1876,0.92522 3.42149,1.09347 l -1.00975,1.96319 1.4304,0.8692 c 0.14956,-0.14956 0.28057,-0.26163 0.39274,-0.33642 0.11217,-0.0561 0.25239,-0.0842 0.42065,-0.0842 0.26173,0 0.48587,0.0844 0.67282,0.2527 0.18696,0.18695 0.28061,0.4203 0.28061,0.70073 0,0.26174 -0.0936,0.48639 -0.28061,0.67335 -0.18695,0.18695 -0.42082,0.28008 -0.70125,0.28008 -0.41129,0 -0.72908,-0.24307 -0.95343,-0.72915 h -1.96267 c 0.0748,0.84129 0.35522,1.47687 0.8413,1.90686 0.48607,0.44869 1.1498,0.67334 1.99109,0.67334 0.89737,0 1.63581,-0.28043 2.21537,-0.84129 0.59825,-0.56086 0.8971,-1.27115 0.8971,-2.13114 0,-0.65433 -0.21493,-1.19678 -0.64492,-1.62677 -0.4113,-0.4113 -0.93481,-0.61702 -1.57045,-0.61702 h -0.25218 l -0.2527,0.0842 0.47698,-0.98134 c 1.06563,-0.0374 2.0845,-0.24311 3.05666,-0.61702 0.97215,-0.3926 1.85081,-0.91611 2.63601,-1.57044 0.8039,-0.67303 1.48605,-1.44883 2.0469,-2.32751 0.56086,-0.87868 0.95388,-1.83205 1.17823,-2.86029 h -5.01985 c -1.04694,2.11257 -2.56117,3.1688 -4.54288,3.1688 -0.71042,0 -1.37414,-0.14022 -1.99109,-0.42065 -0.61694,-0.29912 -1.14966,-0.70135 -1.59835,-1.20613 -0.44869,-0.50477 -0.80435,-1.09326 -1.06609,-1.7663 -0.26173,-0.69172 -0.39222,-1.43068 -0.39222,-2.21588 0,-0.76651 0.13049,-1.4768 0.39222,-2.13114 0.26174,-0.67303 0.6174,-1.25231 1.06609,-1.73839 0.44869,-0.50478 0.97168,-0.8978 1.56993,-1.17822 0.61694,-0.28043 1.28067,-0.42065 1.99109,-0.42065 1.04694,0 1.97268,0.29937 2.77658,0.89762 0.82259,0.57955 1.42081,1.37429 1.79472,2.38383 h 5.01985 c -0.22435,-1.32736 -0.86965,-2.65482 -1.93528,-3.98218 -0.95347,-1.14042 -2.08441,-2.00986 -3.39308,-2.60811 -1.28998,-0.59825 -2.70135,-0.89711 -4.23437,-0.89711 z M 43.434976,118.9655 v 18.78904 h 4.795055 V 118.9655 Z m 8.412922,0 v 18.78904 h 4.598686 l -0.16795,-11.44168 7.263125,11.44168 h 4.178554 V 118.9655 h -4.599202 l 0.196371,11.806 -7.347354,-11.806 z m 32.950444,0 v 4.23437 h 3.729487 v 14.55467 h 4.795573 v -14.55467 h 3.701582 v -4.23437 z m 18.760608,0 -7.543722,18.78904 h 5.159892 l 1.00976,-2.72025 h 6.50606 l 0.92552,2.72025 h 5.1878 l -7.45949,-18.78904 z m 12.75943,0 v 18.78904 h 10.34821 v -4.23489 h -5.55264 V 118.9655 Z m 18.19992,0 -7.5432,18.78904 h 5.15989 l 1.00924,-2.72025 h 6.50606 l 0.92553,2.72025 h 5.18779 l -7.45949,-18.78904 z m 54.96461,0 v 18.78904 h 10.45982 v -4.23489 h -5.86114 v -3.1967 h 5.66477 v -4.23437 h -5.66477 v -2.88871 h 5.86114 v -4.23437 z m -12.31088,3.84163 c 0.72912,0 1.40205,0.14994 2.019,0.44907 0.61694,0.28043 1.15887,0.67293 1.62626,1.1777 0.46738,0.48608 0.83225,1.07509 1.09399,1.76682 0.26173,0.67303 0.39222,1.40226 0.39222,2.18746 0,0.76651 -0.13049,1.48601 -0.39222,2.15904 -0.26174,0.67304 -0.61688,1.26205 -1.06557,1.76682 -0.44869,0.48608 -0.98192,0.86937 -1.59887,1.1498 -0.61695,0.28043 -1.28067,0.42065 -1.99109,0.42065 -0.74782,0 -1.43917,-0.14022 -2.07481,-0.42065 -0.63564,-0.28043 -1.1873,-0.67293 -1.65468,-1.1777 -0.46738,-0.50478 -0.83174,-1.103 -1.09347,-1.79473 -0.26174,-0.69172 -0.39275,-1.43989 -0.39275,-2.24379 0,-0.7665 0.13101,-1.4768 0.39275,-2.13113 0.26173,-0.67303 0.62609,-1.25284 1.09347,-1.73891 0.46738,-0.48608 1.00983,-0.86938 1.62677,-1.1498 0.61695,-0.28043 1.28988,-0.42065 2.019,-0.42065 z m -71.70622,1.99109 1.96319,6.42183 h -3.95428 z m 30.95935,0 1.96319,6.42183 h -3.95376 z" /></clipPath></defs><g
     inkscape:label="Camada 1"
     inkscape:groupmode="layer"
     id="layer1"><g
       id="g1076"
       transform="matrix(1.071632,0,0,1.071632,-9.4763224,1.5681731)"
       inkscape:export-filename="g1076.png"
       inkscape:export-xdpi="96"
       inkscape:export-ydpi="96"
       style="fill:#a0a8aa;fill-opacity:1"><path
         style="fill:#a0a8aa;fill-opacity:1;stroke-width:0.264583"
         d="m 62.479178,122.24463 c 0.145582,-0.14033 5.381976,-1.30805 10.837369,-2.41674 11.92781,-2.42406 24.647259,-4.10296 39.411413,-5.20208 7.0489,-0.52476 31.55985,-0.44162 39.02604,0.13238 12.91783,0.99312 20.43664,1.8773 30.95625,3.64034 8.47574,1.4205 20.32886,3.82506 19.3708,3.92963 -0.11459,0.0125 -2.13866,-0.21277 -4.49791,-0.50062 -9.37744,-1.14413 -22.9386,-2.36269 -32.33539,-2.90556 -2.61938,-0.15132 -5.59594,-0.33278 -6.61459,-0.40323 -10.02186,-0.69314 -45.54356,-0.69404 -53.18124,-10e-4 -0.72761,0.066 -3.70417,0.24903 -6.614584,0.40676 -8.911997,0.48297 -25.431225,2.00275 -33.015866,3.03747 -3.017447,0.41164 -3.51989,0.45418 -3.342292,0.28299 z m 14.397742,-5.3489 c 0.59276,-0.46068 2.846695,-2.04292 32.87712,-23.079504 11.67949,-8.1816 21.40465,-14.94056 21.61146,-15.01992 0.22201,-0.0852 6.0999,3.86497 14.351,9.64442 l 13.975,9.78871 0.13229,-5.7325 0.13229,-5.7325 h 5.38148 5.38149 l -0.005,9.26042 c -0.003,5.093234 0.0763,9.465354 0.17556,9.715824 0.15774,0.39788 3.41283,2.75911 12.98967,9.42266 1.37057,0.95364 2.35636,1.77909 2.19064,1.83433 -0.16572,0.0552 -2.18007,-0.19991 -4.47633,-0.56701 -2.29626,-0.3671 -4.71374,-0.74253 -5.37219,-0.83429 -0.9409,-0.13113 -1.96037,-0.701 -4.7625,-2.66216 l -3.56532,-2.49531 -0.13229,-10.11744 -0.13229,-10.117444 -2.05052,-0.0374 -2.05052,-0.0374 v 8.43796 c 0,5.443784 -0.0938,8.437954 -0.26435,8.437954 -0.27542,0 -4.80587,-3.14105 -26.32628,-18.252504 -2.61937,-1.8393 -4.90824,-3.43115 -5.08638,-3.53743 -0.19924,-0.11888 -5.39184,3.35589 -13.49374,9.02973 -7.24343,5.072634 -16.74175,11.724324 -21.107374,14.781524 -4.365625,3.05719 -8.235156,5.75176 -8.598958,5.98791 -0.519094,0.33696 -11.040961,2.34084 -12.082536,2.3011 -0.121325,-0.005 0.01754,-0.19348 0.308578,-0.41967 z m 48.81562,-13.19796 v -2.51354 h 2.64583 2.64584 v 2.51354 2.51355 h -2.64584 -2.64583 z m 6.61458,0 v -2.51354 h 2.51354 2.51354 v 2.51354 2.51355 h -2.51354 -2.51354 z m -6.61458,-6.350004 v -2.51354 h 2.64583 2.64584 v 2.51354 2.513554 h -2.64584 -2.64583 z m 6.61458,0 v -2.51354 h 2.51354 2.51354 v 2.51354 2.513554 h -2.51354 -2.51354 z"
         id="path302" /><text
         xml:space="preserve"
         style="font-style:normal;font-variant:normal;font-weight:bold;font-stretch:normal;font-size:20.9001px;font-family:'Futura LT';-inkscape-font-specification:'Futura LT Bold';text-align:center;text-anchor:middle;opacity:1;fill:#a0a8aa;fill-opacity:1;stroke-width:0.228595;stroke-linecap:round;stop-color:#000000"
         x="132.21852"
         y="147.56743"
         id="text358"><tspan
           sodipodi:role="line"
           id="tspan356"
           style="font-style:normal;font-variant:normal;font-weight:bold;font-stretch:normal;font-family:'Futura LT';-inkscape-font-specification:'Futura LT Bold';fill:#a0a8aa;fill-opacity:1;stroke-width:0.228595"
           x="132.21852"
           y="147.56743">INSTALAÇÕES JC</tspan></text><text
         xml:space="preserve"
         style="font-style:normal;font-variant:normal;font-weight:bold;font-stretch:normal;font-size:9.42807px;font-family:'Futura LT';-inkscape-font-specification:'Futura LT Bold';text-align:center;text-anchor:middle;opacity:1;fill:#a0a8aa;fill-opacity:1;stroke-width:0.10312;stroke-linecap:round;stop-color:#000000"
         x="132.52266"
         y="164.98735"
         id="text967"><tspan
           sodipodi:role="line"
           id="tspan965"
           style="font-style:normal;font-variant:normal;font-weight:bold;font-stretch:normal;font-family:'Futura LT';-inkscape-font-specification:'Futura LT Bold';fill:#a0a8aa;fill-opacity:1;stroke-width:0.10312"
           x="132.52266"
           y="164.98735">Construindo e realizando sonhos!</tspan></text></g></g></svg>
